<?xml version="1.0" encoding="UTF-8" standalone="no"?>
<svg
   version="1.1"
   id="Layer_1"
   x="0px"
   y="0px"
   viewBox="0 0 348.8236 358.05558"
   enable-background="new 0 0 400 416"
   xml:space="preserve"
   sodipodi:docname="logo.svg"
   inkscape:version="1.1.2 (b8e25be833, 2022-02-05)"
   xmlns:inkscape="http://www.inkscape.org/namespaces/inkscape"
   xmlns:sodipodi="http://sodipodi.sourceforge.net/DTD/sodipodi-0.dtd"
   xmlns="http://www.w3.org/2000/svg"
   xmlns:svg="http://www.w3.org/2000/svg"><defs
   id="defs27" /><sodipodi:namedview
   id="namedview25"
   pagecolor="#ffffff"
   bordercolor="#666666"
   borderopacity="1.0"
   inkscape:pageshadow="2"
   inkscape:pageopacity="0.0"
   inkscape:pagecheckerboard="0"
   showgrid="false"
   inkscape:zoom="2.3518196"
   inkscape:cx="109.91489"
   inkscape:cy="213.02654"
   inkscape:window-width="2560"
   inkscape:window-height="1417"
   inkscape:window-x="-8"
   inkscape:window-y="-8"
   inkscape:window-maximized="1"
   inkscape:current-layer="Layer_1"
   fit-margin-top="0"
   fit-margin-left="0"
   fit-margin-right="0"
   fit-margin-bottom="0"
   inkscape:snap-text-baseline="false" />











<path
   id="path5286"
   style="fill:none;stroke:#FFFFFF;stroke-width:20;stroke-linecap:round;stroke-miterlimit:4;stroke-dasharray:none"
   d="m 238.45849,162.17721 h 64.04668 v 60.62984 c 0,0 5.06556,125.24853 -128.09337,125.24853 -133.158917,0 -128.093351,-125.24853 -128.093351,-125.24853 l -1.2e-5,-60.62984 H 174.4118"
   sodipodi:nodetypes="ccczccc" /><path
   id="path5286-1"
   style="fill:none;stroke:#FFFFFF;stroke-width:20;stroke-miterlimit:4;stroke-dasharray:none"
   d="m 256.84373,258.5657 c 0,0 3.24276,51.36003 -82.00029,51.36003 -85.243037,0 -82.000267,-51.36003 -82.000267,-51.36003 V 233.70352 H 256.84373 Z"
   sodipodi:nodetypes="czcccc" /><path
   id="rect9025-7"
   style="fill:none;stroke:#FFFFFF;stroke-width:20;stroke-miterlimit:4;stroke-dasharray:none"
   d="m 323.71549,162.17721 h -21.21032 v 43.9018 h 23.18758 c 18.76636,0 16.7891,-43.9018 -1.97726,-43.9018 z"
   sodipodi:nodetypes="sccss" /><path
   id="rect9025-7-3"
   style="fill:none;stroke:#FFFFFF;stroke-width:20;stroke-miterlimit:4;stroke-dasharray:none"
   d="m 25.108118,162.17721 h 21.210319 v 43.9018 H 23.130858 c -18.7663636,0 -16.7891035,-43.9018 1.97726,-43.9018 z"
   sodipodi:nodetypes="sccss" /><path
   id="path9877"
   style="fill:none;stroke:#FFFFFF;stroke-width:20;stroke-miterlimit:4;stroke-dasharray:none;stroke-opacity:1"
   d="m 117.73821,35.639434 a 31.421082,31.421082 0 0 0 -31.421381,31.421396 31.421082,31.421082 0 0 0 31.421381,31.421395 31.421082,31.421082 0 0 0 4.1225,-0.29456 31.421082,31.421082 0 0 0 29.23268,20.113225 31.421082,31.421082 0 0 0 31.42139,-31.42006 31.421082,31.421082 0 0 0 -31.42139,-31.421404 31.421082,31.421082 0 0 0 -4.05117,0.28928 31.421082,31.421082 0 0 0 -29.30401,-20.109272 z" /><circle
   style="fill:#FFFFFF;fill-opacity:1;stroke:none;stroke-width:11.9224;stroke-miterlimit:4;stroke-dasharray:none;stroke-opacity:1"
   id="path10623-7"
   cx="155.65569"
   cy="200.05069"
   r="15.339327" /><circle
   style="fill:#FFFFFF;fill-opacity:1;stroke:none;stroke-width:11.9224;stroke-miterlimit:4;stroke-dasharray:none;stroke-opacity:1"
   id="path10623-7-2"
   cx="198.63039"
   cy="199.75525"
   r="15.339327" /><circle
   style="fill:#FFFFFF;fill-opacity:1;stroke:none;stroke-width:8.65075;stroke-miterlimit:4;stroke-dasharray:none;stroke-opacity:1"
   id="path10623-8"
   cx="89.987938"
   cy="128.84531"
   r="11.130035" /><circle
   style="fill:#FFFFFF;fill-opacity:1;stroke:none;stroke-width:8.65075;stroke-miterlimit:4;stroke-dasharray:none;stroke-opacity:1"
   id="path10623-8-7"
   cx="207.04898"
   cy="45.423405"
   r="11.130035" /><circle
   style="fill:#FFFFFF;fill-opacity:1;stroke:none;stroke-width:8.65075;stroke-miterlimit:4;stroke-dasharray:none;stroke-opacity:1"
   id="path10623-8-7-4"
   cx="158.46968"
   cy="11.130035"
   r="11.130035" /><path
   style="fill:none;stroke:#FFFFFF;stroke-width:20;stroke-linecap:round;stroke-linejoin:miter;stroke-miterlimit:4;stroke-dasharray:none;stroke-opacity:1"
   d="M 67.267646,347.85218 H 282.39844"
   id="path16208" /><path
   style="fill:none;stroke:#FFFFFF;stroke-width:20;stroke-linecap:round;stroke-linejoin:miter;stroke-miterlimit:4;stroke-dasharray:none;stroke-opacity:1"
   d="M 282.92654,54.439851 174.4118,162.17721"
   id="path15204" /></svg>
